<svg width="73" height="45" viewBox="0 0 73 45" fill="none" xmlns="http://www.w3.org/2000/svg">
<path fill-rule="evenodd" clip-rule="evenodd" d="M36.2954 0.900238C26.6367 0.900238 20.6016 5.7005 18.1858 15.301C21.808 10.5008 26.0334 8.70101 30.8621 9.90037C33.6171 10.5845 35.5871 12.5716 37.7658 14.7716C41.3171 18.354 45.4275 22.5 54.4035 22.5C64.0608 22.5 70.0973 17.6997 72.5116 8.10062C68.8909 12.9009 64.6654 14.7006 59.8368 13.4998C57.0804 12.8157 55.1103 10.8286 52.9316 8.63004C49.3804 5.04475 45.2714 0.900238 36.2954 0.900238ZM18.1858 22.5C8.52854 22.5 2.49202 27.3002 0.0776978 36.9007C3.69989 32.1005 7.92531 30.3007 12.7525 31.5001C15.5089 32.1842 17.479 34.1713 19.6577 36.3713C23.2089 39.9538 27.318 44.0997 36.2954 44.0997C45.9527 44.0997 51.9892 39.3009 54.4035 29.7004C50.7813 34.5006 46.5559 36.3004 41.7272 35.101C38.9723 34.4155 37.0022 32.4284 34.8235 30.2298C31.2723 26.6473 27.1618 22.5 18.1858 22.5Z" fill="#0EA5E9"/>
</svg>
